<svg width="61" height="60" viewBox="0 0 61 60" fill="none" xmlns="http://www.w3.org/2000/svg">
<path d="M30.4999 0C13.7099 0 0.083252 13.44 0.083252 30C0.083252 46.56 13.7099 60 30.4999 60C47.2899 60 60.9166 46.56 60.9166 30C60.9166 13.44 47.2899 0 30.4999 0ZM30.4999 12C36.3703 12 41.1457 16.71 41.1457 22.5C41.1457 28.29 36.3703 33 30.4999 33C24.6295 33 19.8541 28.29 19.8541 22.5C19.8541 16.71 24.6295 12 30.4999 12ZM30.4999 54C24.3253 54 17.0253 51.54 11.8241 45.36C16.9645 41.4 23.4433 39 30.4999 39C37.5566 39 44.0353 41.4 49.1757 45.36C43.9745 51.54 36.6745 54 30.4999 54Z" fill="black"/>
</svg>
