<svg width="60" height="60" viewBox="0 0 60 40" fill="none" xmlns="http://www.w3.org/2000/svg">
<path d="M40.9091 17.1429C45.4364 17.1429 49.0636 13.3143 49.0636 8.57143C49.0636 3.82857 45.4364 0 40.9091 0C36.3818 0 32.7273 3.82857 32.7273 8.57143C32.7273 13.3143 36.3818 17.1429 40.9091 17.1429ZM19.0909 17.1429C23.6182 17.1429 27.2455 13.3143 27.2455 8.57143C27.2455 3.82857 23.6182 0 19.0909 0C14.5636 0 10.9091 3.82857 10.9091 8.57143C10.9091 13.3143 14.5636 17.1429 19.0909 17.1429ZM19.0909 22.8571C12.7364 22.8571 0 26.2 0 32.8571V40H38.1818V32.8571C38.1818 26.2 25.4455 22.8571 19.0909 22.8571ZM40.9091 22.8571C40.1182 22.8571 39.2182 22.9143 38.2636 23C41.4273 25.4 43.6364 28.6286 43.6364 32.8571V40H60V32.8571C60 26.2 47.2636 22.8571 40.9091 22.8571Z" 
fill="black"/>
</svg>
