<svg width="200" height="35" viewBox="0 0 200 35" fill="none" xmlns="http://www.w3.org/2000/svg">
<path d="M73.512 3.644C77.852 3.644 80.092 6.584 80.092 12.016C80.092 17.448 77.852 20.388 73.512 20.388C69.172 20.388 66.96 17.448 66.96 12.016C66.96 6.584 69.172 3.644 73.512 3.644ZM73.512 6.108C70.768 6.108 69.676 8.208 69.676 12.016C69.676 15.824 70.768 17.924 73.512 17.924C76.284 17.924 77.376 15.824 77.376 12.016C77.376 8.208 76.284 6.108 73.512 6.108ZM85.664 2.216C86.42 2.216 87.092 2.58 87.092 3.392V25.232C87.092 26.044 86.42 26.408 85.664 26.408C84.964 26.408 84.264 26.044 84.264 25.232V3.392C84.264 2.58 84.964 2.216 85.664 2.216ZM101.684 3.476C103.308 3.476 103.84 3.98 103.84 5.576V9.216C103.84 10.812 103.308 11.316 101.684 11.316H96.2244C95.8044 11.316 95.6364 11.456 95.6364 11.904V14.06C95.6364 14.48 95.8044 14.62 96.2244 14.62C99.4444 14.62 102.916 14.508 105.66 14.2C106.304 14.144 106.696 14.592 106.752 15.208C106.836 15.88 106.556 16.468 105.94 16.552C103.448 16.804 100.004 16.972 95.0484 16.972C93.4244 16.972 92.8924 16.468 92.8924 14.872V11.204C92.8924 9.608 93.4244 9.104 95.0484 9.104H100.508C100.928 9.104 101.096 8.936 101.096 8.516V6.416C101.096 5.968 100.928 5.828 100.508 5.828H93.8164C93.1724 5.828 92.8924 5.268 92.8924 4.652C92.8924 4.036 93.1724 3.476 93.8164 3.476H101.684ZM111.372 2.216C112.072 2.216 112.744 2.58 112.744 3.392V17.028C112.744 17.84 112.072 18.204 111.372 18.204C110.672 18.204 109.972 17.84 109.972 17.028V12.688H106.332C105.688 12.688 105.408 12.156 105.408 11.512C105.408 10.896 105.688 10.364 106.332 10.364H109.972V8.348H106.332C105.688 8.348 105.408 7.816 105.408 7.172C105.408 6.556 105.688 6.024 106.332 6.024H109.972V3.392C109.972 2.58 110.672 2.216 111.372 2.216ZM110.588 19.408C112.212 19.408 112.744 19.912 112.744 21.508V27.08C112.744 27.892 112.072 28.256 111.344 28.256C110.616 28.256 109.944 27.892 109.944 27.08V22.376C109.944 21.956 109.776 21.816 109.356 21.816H96.7844C96.0844 21.816 95.7764 21.256 95.7764 20.612C95.7764 19.968 96.0844 19.408 96.7844 19.408H110.588ZM124.901 3.532C125.657 3.532 126.329 3.896 126.329 4.708V9.048C126.329 11.4 126.861 12.744 128.541 14.536C129.661 15.74 130.809 16.86 131.761 17.728C132.293 18.204 132.125 18.988 131.677 19.464C131.257 19.912 130.473 20.08 129.969 19.604C129.101 18.82 128.149 17.868 127.085 16.748C125.461 15.04 125.069 14.368 124.929 13.78H124.901C124.761 14.424 124.369 15.096 122.745 16.804C121.681 17.924 120.701 18.904 119.497 19.996C118.937 20.528 118.153 20.248 117.733 19.772C117.285 19.268 117.229 18.54 117.761 18.036C118.993 16.888 120.169 15.74 121.289 14.536C122.941 12.744 123.501 11.4 123.501 9.048V4.708C123.501 3.896 124.173 3.532 124.901 3.532ZM136.829 2.216C137.557 2.216 138.229 2.58 138.229 3.392V25.232C138.229 26.044 137.557 26.408 136.829 26.408C136.129 26.408 135.457 26.044 135.457 25.232V12.128H131.201C130.501 12.128 130.193 11.596 130.193 10.952C130.193 10.28 130.501 9.748 131.201 9.748H135.457V3.392C135.457 2.58 136.129 2.216 136.829 2.216ZM167.577 3.084C169.201 3.084 169.733 3.588 169.733 5.184V10.196C169.733 11.792 169.201 12.296 167.577 12.296H162.565V15.096H172.001C172.645 15.096 172.953 15.628 172.953 16.272C172.953 16.916 172.645 17.448 172.001 17.448H150.385C149.741 17.448 149.433 16.916 149.433 16.272C149.433 15.628 149.741 15.096 150.385 15.096H159.821V12.296H154.809C153.185 12.296 152.681 11.792 152.681 10.196V5.184C152.681 3.588 153.185 3.084 154.809 3.084H167.577ZM167.633 19.632C169.257 19.632 169.789 20.136 169.789 21.732V27.192C169.789 28.004 169.089 28.368 168.361 28.368C167.661 28.368 166.989 28.004 166.989 27.192V22.572C166.989 22.124 166.821 21.984 166.401 21.984H153.241C152.569 21.984 152.289 21.452 152.289 20.808C152.289 20.164 152.569 19.632 153.241 19.632H167.633ZM156.041 5.408C155.593 5.408 155.453 5.548 155.453 5.968V9.412C155.453 9.832 155.593 9.972 156.041 9.972H166.345C166.793 9.972 166.933 9.832 166.933 9.412V5.968C166.933 5.548 166.793 5.408 166.345 5.408H156.041ZM192.922 2.972C194.546 2.972 195.078 3.476 195.078 5.072V7.34C195.078 8.936 194.546 9.44 192.922 9.44H181.386C181.106 9.44 180.966 9.58 180.966 9.86V11.148C180.966 11.456 181.106 11.568 181.386 11.568H194.798C195.414 11.568 195.694 12.1 195.694 12.688C195.694 13.276 195.414 13.808 194.798 13.808H188.05V16.076H197.486C198.13 16.076 198.438 16.58 198.438 17.224C198.438 17.868 198.13 18.372 197.486 18.372H175.87C175.226 18.372 174.918 17.868 174.918 17.224C174.918 16.58 175.226 16.076 175.87 16.076H185.306V13.808H180.406C178.782 13.808 178.25 13.304 178.25 11.708V9.412C178.25 7.816 178.782 7.312 180.406 7.312H191.914C192.222 7.312 192.362 7.172 192.362 6.864V5.632C192.362 5.324 192.222 5.212 191.914 5.212H179.09C178.474 5.212 178.194 4.68 178.194 4.092C178.194 3.504 178.474 2.972 179.09 2.972H192.922ZM193.118 20.22C194.742 20.22 195.274 20.724 195.274 22.32V27.192C195.274 28.004 194.574 28.368 193.874 28.368C193.174 28.368 192.474 28.004 192.474 27.192V23.104C192.474 22.684 192.334 22.516 191.886 22.516H178.726C178.053 22.516 177.774 22.012 177.774 21.368C177.774 20.724 178.053 20.22 178.726 20.22H193.118Z"/>
<path d="M3.5 0C1.575 0 0.0175004 1.575 0.0175004 3.5L0 31.5C0 33.425 1.5575 35 3.4825 35H24.5C26.425 35 28 33.425 28 31.5V10.5L17.5 0H3.5ZM15.75 12.25V2.625L25.375 12.25H15.75Z" />
</svg>
