<svg width="208" height="45" viewBox="0 0 208 45" fill="none" xmlns="http://www.w3.org/2000/svg">
<path d="M94 10.064C94.672 10.064 94.98 10.596 94.98 11.24C94.98 11.856 94.672 12.388 94 12.388H91.284V20.34H94.14C94.784 20.34 95.092 20.872 95.092 21.516C95.092 22.16 94.784 22.664 94.14 22.664H77.34C76.696 22.664 76.388 22.16 76.388 21.516C76.388 20.872 76.696 20.34 77.34 20.34H80.196V12.388H77.48C76.808 12.388 76.5 11.856 76.5 11.24C76.5 10.596 76.808 10.064 77.48 10.064H94ZM82.912 20.34H88.568V12.388H82.912V20.34ZM96.52 27.564C97.192 27.564 97.5 28.096 97.5 28.768C97.5 29.412 97.192 29.972 96.52 29.972H74.96C74.288 29.972 73.98 29.412 73.98 28.768C73.98 28.096 74.288 27.564 74.96 27.564H96.52ZM117.524 9.672C119.148 9.672 119.68 10.176 119.68 11.772V15.496C119.68 17.064 119.148 17.568 117.524 17.568H106.072C105.652 17.568 105.484 17.736 105.484 18.156V20.256C105.484 20.676 105.652 20.816 106.072 20.816H119.316C119.988 20.816 120.296 21.376 120.296 22.02C120.296 22.664 119.988 23.196 119.316 23.196H112.624V27.592H122.004C122.676 27.592 122.984 28.124 122.984 28.768C122.984 29.412 122.676 29.972 122.004 29.972H100.444C99.7724 29.972 99.4644 29.412 99.4644 28.768C99.4644 28.124 99.7724 27.592 100.444 27.592H109.824V23.196H104.896C103.272 23.196 102.74 22.692 102.74 21.096V17.372C102.74 15.776 103.272 15.3 104.896 15.3H116.348C116.768 15.3 116.936 15.132 116.936 14.712V12.64C116.936 12.22 116.768 12.052 116.348 12.052H103.664C102.992 12.052 102.684 11.52 102.684 10.876C102.684 10.232 102.992 9.672 103.664 9.672H117.524ZM139.397 9.476C140.069 9.476 140.377 10.008 140.377 10.624C140.377 11.212 140.069 11.744 139.397 11.744H137.773V18.128C138.529 18.044 139.257 17.96 140.013 17.848C140.657 17.764 141.077 18.184 141.133 18.8C141.217 19.416 140.965 20.032 140.349 20.116C136.765 20.592 132.845 20.704 126.573 20.704C125.901 20.704 125.593 20.172 125.593 19.584C125.593 18.968 125.901 18.436 126.573 18.436H128.533V11.744H126.769C126.069 11.744 125.761 11.212 125.761 10.624C125.761 10.008 126.069 9.476 126.769 9.476H139.397ZM131.193 18.436C132.565 18.436 133.853 18.38 135.085 18.296V11.744H131.193V18.436ZM144.661 8.216C145.389 8.216 146.061 8.58 146.061 9.392V20.424C146.061 21.236 145.389 21.6 144.661 21.6C143.933 21.6 143.261 21.236 143.261 20.424V9.392C143.261 8.58 143.933 8.216 144.661 8.216ZM143.905 22.804C145.529 22.804 146.061 23.308 146.061 24.904V27.396C146.061 28.992 145.529 29.496 143.905 29.496H133.069C132.621 29.496 132.481 29.636 132.481 30.084V31.204C132.481 31.624 132.621 31.792 133.069 31.792H145.753C146.397 31.792 146.677 32.324 146.677 32.912C146.677 33.5 146.397 34.032 145.753 34.032H131.921C130.297 34.032 129.765 33.528 129.765 31.932V29.44C129.765 27.844 130.297 27.34 131.921 27.34H142.757C143.177 27.34 143.345 27.2 143.345 26.752V25.632C143.345 25.212 143.177 25.072 142.757 25.072H130.633C129.989 25.072 129.709 24.54 129.709 23.924C129.709 23.336 129.989 22.804 130.633 22.804H143.905ZM171.965 20.48C172.609 20.396 173.029 20.844 173.085 21.432C173.169 22.104 172.917 22.72 172.301 22.776C169.473 23.112 165.889 23.224 158.889 23.224C158.217 23.224 157.909 22.692 157.909 22.076C157.909 21.488 158.217 20.928 158.889 20.928H160.849V12.276H159.085C158.385 12.276 158.077 11.716 158.077 11.128C158.077 10.512 158.385 9.98 159.085 9.98H171.461C172.133 9.98 172.441 10.512 172.441 11.128C172.441 11.716 172.133 12.276 171.461 12.276H169.753V20.704C170.537 20.648 171.265 20.564 171.965 20.48ZM163.509 12.276V20.928C164.713 20.928 165.889 20.9 167.093 20.844V12.276H163.509ZM177.341 8.216C178.041 8.216 178.713 8.58 178.713 9.392V25.968C178.713 26.78 178.041 27.144 177.341 27.144C176.641 27.144 175.941 26.78 175.941 25.968V19.612H173.253C172.581 19.612 172.273 19.08 172.273 18.436C172.273 17.792 172.581 17.26 173.253 17.26H175.941V15.048H173.253C172.581 15.048 172.273 14.516 172.273 13.872C172.273 13.228 172.581 12.696 173.253 12.696H175.941V9.392C175.941 8.58 176.641 8.216 177.341 8.216ZM163.677 25.352C164.377 25.352 165.077 25.716 165.077 26.528V30.7C165.077 31.12 165.217 31.26 165.665 31.26H178.377C179.077 31.26 179.385 31.82 179.385 32.492C179.385 33.136 179.077 33.696 178.377 33.696H164.405C162.781 33.696 162.249 33.192 162.249 31.596V26.528C162.249 25.716 162.921 25.352 163.677 25.352ZM197.17 9.616C197.842 9.616 198.15 10.176 198.15 10.82C198.15 11.464 197.842 11.996 197.17 11.996H192.606V13.172C192.606 14.964 193.11 15.972 194.482 17.036C195.77 18.072 196.918 18.884 197.87 19.528C198.486 19.948 198.486 20.704 198.094 21.236C197.73 21.712 197.058 22.02 196.386 21.572C195.686 21.096 194.454 20.2 193.334 19.36C191.906 18.268 191.402 17.596 191.262 17.036H191.234C191.094 17.652 190.534 18.38 189.078 19.472C187.93 20.368 186.642 21.292 185.55 22.02C184.906 22.468 184.206 22.132 183.87 21.656C183.478 21.124 183.422 20.368 184.094 19.892C185.41 19.024 186.614 18.156 187.93 17.12C189.302 16.028 189.806 15.02 189.806 13.256V11.996H185.046C184.346 11.996 184.038 11.464 184.038 10.82C184.038 10.176 184.346 9.616 185.046 9.616H197.17ZM202.63 8.216C203.358 8.216 204.03 8.58 204.03 9.392V20.9C204.03 21.712 203.358 22.076 202.63 22.076C201.902 22.076 201.23 21.712 201.23 20.9V9.392C201.23 8.58 201.902 8.216 202.63 8.216ZM189.022 23.28C189.722 23.28 190.422 23.644 190.422 24.428V26.78H201.286V24.428C201.286 23.644 201.958 23.28 202.63 23.28C203.358 23.28 204.03 23.644 204.03 24.428V31.792C204.03 33.388 203.498 33.892 201.874 33.892H189.834C188.21 33.892 187.678 33.388 187.678 31.792V24.428C187.678 23.644 188.35 23.28 189.022 23.28ZM190.422 31.008C190.422 31.428 190.562 31.596 191.01 31.596H200.698C201.118 31.596 201.286 31.428 201.286 31.008V29.02H190.422V31.008Z"/>
<g clip-path="url(#clip0_475_1676)">
<path d="M26.3625 16.9125L28.0875 18.6375L11.1 35.625H9.375V33.9L26.3625 16.9125ZM33.1125 5.625C32.6437 5.625 32.1562 5.8125 31.8 6.16875L28.3687 9.6L35.4 16.6312L38.8312 13.2C39.5625 12.4688 39.5625 11.2875 38.8312 10.5563L34.4438 6.16875C34.0688 5.79375 33.6 5.625 33.1125 5.625ZM26.3625 11.6063L5.625 32.3438V39.375H12.6562L33.3937 18.6375L26.3625 11.6063Z" />
</g>
<defs>
<clipPath id="clip0_475_1676">
<rect width="45" height="45" />
</clipPath>
</defs>
</svg>
