<svg width="230" height="33" viewBox="0 0 230 33" fill="none" xmlns="http://www.w3.org/2000/svg">
<path d="M91 4.064C91.672 4.064 91.98 4.596 91.98 5.24C91.98 5.856 91.672 6.388 91 6.388H88.284V14.34H91.14C91.784 14.34 92.092 14.872 92.092 15.516C92.092 16.16 91.784 16.664 91.14 16.664H74.34C73.696 16.664 73.388 16.16 73.388 15.516C73.388 14.872 73.696 14.34 74.34 14.34H77.196V6.388H74.48C73.808 6.388 73.5 5.856 73.5 5.24C73.5 4.596 73.808 4.064 74.48 4.064H91ZM79.912 14.34H85.568V6.388H79.912V14.34ZM93.52 21.564C94.192 21.564 94.5 22.096 94.5 22.768C94.5 23.412 94.192 23.972 93.52 23.972H71.96C71.288 23.972 70.98 23.412 70.98 22.768C70.98 22.096 71.288 21.564 71.96 21.564H93.52ZM114.524 3.672C116.148 3.672 116.68 4.176 116.68 5.772V9.496C116.68 11.064 116.148 11.568 114.524 11.568H103.072C102.652 11.568 102.484 11.736 102.484 12.156V14.256C102.484 14.676 102.652 14.816 103.072 14.816H116.316C116.988 14.816 117.296 15.376 117.296 16.02C117.296 16.664 116.988 17.196 116.316 17.196H109.624V21.592H119.004C119.676 21.592 119.984 22.124 119.984 22.768C119.984 23.412 119.676 23.972 119.004 23.972H97.4444C96.7724 23.972 96.4644 23.412 96.4644 22.768C96.4644 22.124 96.7724 21.592 97.4444 21.592H106.824V17.196H101.896C100.272 17.196 99.7404 16.692 99.7404 15.096V11.372C99.7404 9.776 100.272 9.3 101.896 9.3H113.348C113.768 9.3 113.936 9.132 113.936 8.712V6.64C113.936 6.22 113.768 6.052 113.348 6.052H100.664C99.9924 6.052 99.6844 5.52 99.6844 4.876C99.6844 4.232 99.9924 3.672 100.664 3.672H114.524ZM133.317 3.84C133.989 3.84 134.297 4.4 134.297 5.044C134.297 5.688 133.989 6.22 133.317 6.22H129.761V7.564C129.761 9.384 130.041 10.42 131.301 11.68C132.337 12.716 133.345 13.612 134.045 14.228C134.549 14.648 134.549 15.46 134.101 15.964C133.681 16.468 132.953 16.608 132.365 16.132C131.721 15.572 130.993 14.9 130.125 14.088C128.893 12.912 128.529 12.324 128.417 11.792H128.389C128.277 12.408 127.969 12.996 126.681 14.2C125.673 15.152 124.889 15.88 123.937 16.692C123.405 17.14 122.677 16.972 122.201 16.468C121.781 15.992 121.697 15.18 122.229 14.732C123.293 13.808 124.441 12.8 125.505 11.736C126.737 10.476 127.017 9.468 127.017 7.62V6.22H123.237C122.537 6.22 122.229 5.688 122.229 5.044C122.229 4.4 122.537 3.84 123.237 3.84H133.317ZM137.545 2.356C138.189 2.356 138.833 2.692 138.833 3.448V16.132C138.833 16.86 138.189 17.224 137.545 17.224C136.873 17.224 136.229 16.86 136.229 16.132V11.008H133.653C132.981 11.008 132.673 10.476 132.673 9.832C132.673 9.16 132.981 8.628 133.653 8.628H136.229V3.448C136.229 2.692 136.873 2.356 137.545 2.356ZM142.557 2.216C143.229 2.216 143.873 2.552 143.873 3.308V16.272C143.873 17 143.229 17.364 142.557 17.364C141.913 17.364 141.269 17 141.269 16.272V3.308C141.269 2.552 141.913 2.216 142.557 2.216ZM141.717 18.568C143.341 18.568 143.873 19.072 143.873 20.668V27.08C143.873 27.892 143.201 28.256 142.473 28.256C141.745 28.256 141.073 27.892 141.073 27.08V21.536C141.073 21.116 140.905 20.976 140.485 20.976H127.325C126.625 20.976 126.317 20.416 126.317 19.772C126.317 19.128 126.625 18.568 127.325 18.568H141.717ZM166.725 3.784C167.397 3.784 167.705 4.344 167.705 4.988C167.705 5.632 167.397 6.164 166.725 6.164H153.957C153.509 6.164 153.369 6.332 153.369 6.752V9.468H166.445C167.117 9.468 167.425 10.028 167.425 10.616C167.425 11.232 167.117 11.764 166.445 11.764H153.369V14.508C153.369 14.928 153.509 15.096 153.957 15.096H167.201C167.873 15.096 168.181 15.628 168.181 16.272C168.181 16.916 167.873 17.448 167.201 17.448H152.781C151.157 17.448 150.625 16.972 150.625 15.376V5.884C150.625 4.288 151.157 3.784 152.781 3.784H166.725ZM169.973 21.564C170.645 21.564 170.953 22.096 170.953 22.768C170.953 23.412 170.645 23.972 169.973 23.972H148.413C147.741 23.972 147.433 23.412 147.433 22.768C147.433 22.096 147.741 21.564 148.413 21.564H169.973ZM182.494 3.644H192.126C193.75 3.644 194.282 4.148 194.282 5.744V7.76C194.282 9.3 194.114 10.756 193.778 11.988C193.554 12.744 192.826 12.996 192.07 12.828C191.342 12.66 190.894 12.184 191.09 11.4C191.37 10.168 191.51 9.02 191.51 7.676V6.668C191.51 6.22 191.342 6.08 190.922 6.08H182.494C181.822 6.08 181.514 5.52 181.514 4.876C181.514 4.204 181.822 3.644 182.494 3.644ZM198.902 2.216C199.63 2.216 200.302 2.58 200.302 3.364V10H203.018C203.746 10 204.054 10.56 204.054 11.232C204.054 11.904 203.746 12.464 203.018 12.464H200.302V20.444C200.302 21.228 199.63 21.592 198.902 21.592C198.202 21.592 197.53 21.228 197.53 20.444V3.364C197.53 2.58 198.202 2.216 198.902 2.216ZM186.162 9.524C186.862 9.524 187.534 9.888 187.534 10.672V15.152C189.97 15.068 192.49 14.956 195.038 14.732C195.682 14.648 196.018 15.124 196.074 15.796C196.13 16.412 195.85 17 195.234 17.056C190.95 17.42 185.994 17.56 180.842 17.56C180.17 17.56 179.861 17.028 179.861 16.384C179.861 15.74 180.17 15.208 180.842 15.208H184.79V10.672C184.79 9.888 185.462 9.524 186.162 9.524ZM185.07 19.772C185.77 19.772 186.47 20.136 186.47 20.948V24.784C186.47 25.204 186.61 25.372 187.058 25.372H199.994C200.666 25.372 200.974 25.904 200.974 26.548C200.974 27.192 200.666 27.752 199.994 27.752H185.798C184.174 27.752 183.642 27.248 183.642 25.652V20.948C183.642 20.136 184.314 19.772 185.07 19.772ZM216.406 3.924C218.03 3.924 218.562 4.428 218.562 6.024V11.232C218.562 12.828 218.03 13.332 216.406 13.332H210.358C209.91 13.332 209.77 13.472 209.77 13.892V17.616C209.77 18.036 209.91 18.176 210.358 18.176C214.334 18.176 217.442 18.008 220.466 17.588C221.11 17.504 221.53 17.98 221.586 18.596C221.67 19.268 221.418 19.884 220.802 19.968C218.198 20.332 214.866 20.584 209.154 20.584C207.53 20.584 206.998 20.08 206.998 18.484V13.108C206.998 11.512 207.53 11.036 209.154 11.036H215.23C215.65 11.036 215.818 10.868 215.818 10.448V6.892C215.818 6.472 215.65 6.332 215.23 6.332H207.978C207.278 6.332 206.998 5.772 206.998 5.128C206.998 4.484 207.278 3.924 207.978 3.924H216.406ZM225.086 2.216C225.842 2.216 226.514 2.58 226.514 3.392V25.232C226.514 26.044 225.842 26.408 225.086 26.408C224.386 26.408 223.686 26.044 223.686 25.232V3.392C223.686 2.58 224.386 2.216 225.086 2.216Z" />
<path d="M31.5 6.94737H24.5V3.47368C24.5 1.54579 22.9425 0 21 0H14C12.0575 0 10.5 1.54579 10.5 3.47368V6.94737H3.5C1.5575 6.94737 0.0175 8.49316 0.0175 10.4211L0 29.5263C0 31.4542 1.5575 33 3.5 33H31.5C33.4425 33 35 31.4542 35 29.5263V10.4211C35 8.49316 33.4425 6.94737 31.5 6.94737ZM21 6.94737H14V3.47368H21V6.94737Z" />
</svg>
