<svg width="182" height="40" viewBox="0 0 182 40" fill="none" xmlns="http://www.w3.org/2000/svg">
<g clip-path="url(#clip0_740_2563)">
<path d="M40.9091 17.1429C45.4364 17.1429 49.0636 13.3143 49.0636 8.57143C49.0636 3.82857 45.4364 0 40.9091 0C36.3818 0 32.7273 3.82857 32.7273 8.57143C32.7273 13.3143 36.3818 17.1429 40.9091 17.1429ZM19.0909 17.1429C23.6182 17.1429 27.2455 13.3143 27.2455 8.57143C27.2455 3.82857 23.6182 0 19.0909 0C14.5636 0 10.9091 3.82857 10.9091 8.57143C10.9091 13.3143 14.5636 17.1429 19.0909 17.1429ZM19.0909 22.8571C12.7364 22.8571 0 26.2 0 32.8571V40H38.1818V32.8571C38.1818 26.2 25.4455 22.8571 19.0909 22.8571ZM40.9091 22.8571C40.1182 22.8571 39.2182 22.9143 38.2636 23C41.4273 25.4 43.6364 28.6286 43.6364 32.8571V40H60V32.8571C60 26.2 47.2636 22.8571 40.9091 22.8571Z" fill="black"/>
<path d="M75.856 20.5751H77.9C83.36 20.5751 86.356 20.4631 89.912 19.8471L90.164 21.6951C86.496 22.3391 83.416 22.4231 77.9 22.4231H75.856V20.5751ZM75.856 10.4111H87.896V12.2871H78.152V21.5271H75.856V10.4111ZM77.396 15.3951H87.196V17.2711H77.396V15.3951ZM92.796 8.89909H95.148V23.9631H92.796V8.89909ZM78.796 25.2231H95.148V33.8471H78.796V25.2231ZM92.852 27.0991H81.064V31.9711H92.852V27.0991ZM107.326 21.6111H109.65V27.2391H107.326V21.6111ZM118.554 8.87109H120.878V28.1351H118.554V8.87109ZM103.602 31.7191H121.494V33.6231H103.602V31.7191ZM103.602 26.2591H105.926V32.2511H103.602V26.2591ZM100.326 22.4791L100.018 20.5751C104.694 20.5751 110.966 20.5191 116.342 19.8191L116.51 21.5271C111.05 22.3951 104.918 22.4791 100.326 22.4791ZM113.402 23.8231H119.142V25.5311H113.402V23.8231ZM108.25 9.90709C111.946 9.90709 114.466 11.6431 114.466 14.3031C114.466 16.9911 111.946 18.7271 108.25 18.7271C104.526 18.7271 102.006 16.9911 102.006 14.3031C102.006 11.6431 104.526 9.90709 108.25 9.90709ZM108.25 11.6431C105.87 11.6431 104.218 12.6791 104.218 14.3031C104.218 15.9271 105.87 16.9631 108.25 16.9631C110.602 16.9631 112.254 15.9271 112.254 14.3031C112.254 12.6791 110.602 11.6431 108.25 11.6431ZM145.865 15.4231H151.577V17.3551H145.865V15.4231ZM150.849 8.87109H153.173V23.9631H150.849V8.87109ZM144.857 24.7191C150.065 24.7191 153.285 26.4831 153.285 29.4511C153.285 32.4471 150.065 34.1551 144.857 34.1551C139.621 34.1551 136.401 32.4471 136.401 29.4511C136.401 26.4831 139.621 24.7191 144.857 24.7191ZM144.857 26.5391C141.049 26.5391 138.725 27.6031 138.725 29.4511C138.725 31.2711 141.049 32.3351 144.857 32.3351C148.665 32.3351 150.989 31.2711 150.989 29.4511C150.989 27.6031 148.665 26.5391 144.857 26.5391ZM138.809 11.4191H140.713V13.4631C140.713 18.1391 137.857 22.1431 133.657 23.7111L132.453 21.8631C136.205 20.4911 138.809 17.1031 138.809 13.4631V11.4191ZM139.257 11.4191H141.133V13.4631C141.133 16.7391 143.597 19.8751 147.265 21.1631L146.089 23.0111C141.973 21.5271 139.257 17.7191 139.257 13.4631V11.4191ZM133.153 10.7191H146.677V12.6231H133.153V10.7191ZM158.127 29.0311H181.059V30.9631H158.127V29.0311ZM168.375 22.9831H170.699V29.5911H168.375V22.9831ZM160.815 10.6631H163.111V15.1711H176.019V10.6631H178.315V23.5991H160.815V10.6631ZM163.111 17.0471V21.6951H176.019V17.0471H163.111Z" fill="black"/>
</g>
<defs>
<clipPath id="clip0_740_2563">
<rect width="182" height="40" fill="white"/>
</clipPath>
</defs>
</svg>
